# xmcd CD database file
#
# Track frame offsets:
#	150
#	22723
#	41732
#	64406
#
# Disc length: 1157 seconds
#
# Revision: 0
# Processed by: cddbd v1.5.1PL0 Copyright (c) Steve Scherf et al.
# Submitted via: CDex 1.51
#
DISCID=2c048304
DTITLE=リュシウォン - 桜
DYEAR=1900
DGENRE=J-pop
TTITLE0=桜
TTITLE1=アワ・レインボウ
TTITLE2=誓い−アイ・キャン・オーバーカムー
TTITLE3=桜（カラオケ）
EXTD=
EXTT0=
EXTT1=
EXTT2=
EXTT3=
PLAYORDER=
